# ###############################
# Obj file written by RoadKill1_1
# RoadKill by Andy Swann
# http://www.pullin-shapes.co.uk/
# ###############################
g RoadKillOut
o RoadKillOut
# 26 Vertex coords
v -1.370023 1.339756 34.637142
v 12.405730 1.339756 34.637142
v -1.370023 1.768601 34.637142
v 12.405730 1.768601 34.637142
v -1.370023 1.768601 33.415180
v 12.405730 1.768601 33.415180
v -1.370023 1.339756 33.415180
v 12.405730 1.339756 33.415180
v 5.517853 1.554178 34.637142
v 5.517853 1.339756 34.637142
v 12.405730 1.554178 34.637142
v 5.517853 1.768601 34.637142
v -1.370023 1.554178 34.637142
v 5.517853 1.768601 34.026161
v 12.405730 1.768601 34.026161
v 5.517853 1.768601 33.415180
v -1.370023 1.768601 34.026161
v 5.517853 1.554178 33.415180
v 12.405730 1.554178 33.415180
v 5.517853 1.339756 33.415180
v -1.370023 1.554178 33.415180
v 5.517853 1.339756 34.026161
v 12.405730 1.339756 34.026161
v -1.370023 1.339756 34.026161
v 12.405730 1.554178 34.026161
v -1.370023 1.554178 34.026161

# 96 Normal vectors
vn 0.000000 0.000000 1.000000
vn 0.000000 0.000000 1.000000
vn 0.000000 0.000000 1.000000
vn 0.000000 0.000000 1.000000
vn 0.000000 1.000000 0.000000
vn 0.000000 1.000000 0.000000
vn 0.000000 1.000000 0.000000
vn 0.000000 1.000000 0.000000
vn 0.000000 0.000000 -1.000000
vn 0.000000 0.000000 -1.000000
vn 0.000000 0.000000 -1.000000
vn 0.000000 0.000000 -1.000000
vn 0.000000 -1.000000 0.000000
vn 0.000000 -1.000000 0.000000
vn 0.000000 -1.000000 0.000000
vn 0.000000 -1.000000 0.000000
vn 1.000000 0.000000 0.000000
vn 1.000000 0.000000 0.000000
vn 1.000000 0.000000 0.000000
vn 1.000000 0.000000 0.000000
vn -1.000000 0.000000 0.000000
vn -1.000000 0.000000 0.000000
vn -1.000000 0.000000 0.000000
vn -1.000000 0.000000 0.000000
vn 0.000000 0.000000 1.000000
vn 0.000000 0.000000 1.000000
vn 0.000000 0.000000 1.000000
vn 0.000000 0.000000 1.000000
vn 0.000000 0.000000 1.000000
vn 0.000000 0.000000 1.000000
vn 0.000000 0.000000 1.000000
vn 0.000000 0.000000 1.000000
vn 0.000000 0.000000 1.000000
vn 0.000000 0.000000 1.000000
vn 0.000000 0.000000 1.000000
vn 0.000000 0.000000 1.000000
vn 0.000000 1.000000 0.000000
vn 0.000000 1.000000 0.000000
vn 0.000000 1.000000 0.000000
vn 0.000000 1.000000 0.000000
vn 0.000000 1.000000 0.000000
vn 0.000000 1.000000 0.000000
vn 0.000000 1.000000 0.000000
vn 0.000000 1.000000 0.000000
vn 0.000000 1.000000 0.000000
vn 0.000000 1.000000 0.000000
vn 0.000000 1.000000 0.000000
vn 0.000000 1.000000 0.000000
vn 0.000000 0.000000 -1.000000
vn 0.000000 0.000000 -1.000000
vn 0.000000 0.000000 -1.000000
vn 0.000000 0.000000 -1.000000
vn 0.000000 0.000000 -1.000000
vn 0.000000 0.000000 -1.000000
vn 0.000000 0.000000 -1.000000
vn 0.000000 0.000000 -1.000000
vn 0.000000 0.000000 -1.000000
vn 0.000000 0.000000 -1.000000
vn 0.000000 0.000000 -1.000000
vn 0.000000 0.000000 -1.000000
vn 0.000000 -1.000000 0.000000
vn 0.000000 -1.000000 0.000000
vn 0.000000 -1.000000 0.000000
vn 0.000000 -1.000000 0.000000
vn 0.000000 -1.000000 0.000000
vn 0.000000 -1.000000 0.000000
vn 0.000000 -1.000000 0.000000
vn 0.000000 -1.000000 0.000000
vn 0.000000 -1.000000 0.000000
vn 0.000000 -1.000000 0.000000
vn 0.000000 -1.000000 0.000000
vn 0.000000 -1.000000 0.000000
vn 1.000000 0.000000 0.000000
vn 1.000000 0.000000 0.000000
vn 1.000000 0.000000 0.000000
vn 1.000000 0.000000 0.000000
vn 1.000000 0.000000 0.000000
vn 1.000000 0.000000 0.000000
vn 1.000000 0.000000 0.000000
vn 1.000000 0.000000 0.000000
vn 1.000000 0.000000 0.000000
vn 1.000000 0.000000 0.000000
vn 1.000000 0.000000 0.000000
vn 1.000000 0.000000 0.000000
vn -1.000000 0.000000 0.000000
vn -1.000000 0.000000 0.000000
vn -1.000000 0.000000 0.000000
vn -1.000000 0.000000 0.000000
vn -1.000000 0.000000 0.000000
vn -1.000000 0.000000 0.000000
vn -1.000000 0.000000 0.000000
vn -1.000000 0.000000 0.000000
vn -1.000000 0.000000 0.000000
vn -1.000000 0.000000 0.000000
vn -1.000000 0.000000 0.000000
vn -1.000000 0.000000 0.000000

# 54 texture coords
vt 0.300599 0.001935 0.00
vt 0.338996 0.000000 0.00
vt 0.338889 0.294396 0.00
vt 0.300598 0.294396 0.00
vt 0.196002 0.001440 0.00
vt 0.260903 0.000001 0.00
vt 0.260816 0.495016 0.00
vt 0.196000 0.495016 0.00
vt 0.378161 0.001935 0.00
vt 0.416559 0.000000 0.00
vt 0.416452 0.294396 0.00
vt 0.378161 0.294396 0.00
vt 0.064901 0.001440 0.00
vt 0.129803 0.000000 0.00
vt 0.129716 0.495016 0.00
vt 0.064900 0.495016 0.00
vt 0.525048 0.018715 0.00
vt 0.525048 0.000000 0.00
vt 0.578375 0.000000 0.00
vt 0.578375 0.018715 0.00
vt 0.523981 0.018715 0.00
vt 0.523981 0.037430 0.00
vt 0.470654 0.037430 0.00
vt 0.470654 0.018715 0.00
vt 0.338996 0.588792 0.00
vt 0.300599 0.586857 0.00
vt 0.262201 0.588792 0.00
vt 0.262308 0.294396 0.00
vt 0.262201 0.000000 0.00
vt 0.260903 0.990032 0.00
vt 0.196002 0.988592 0.00
vt 0.131101 0.990032 0.00
vt 0.131185 0.495016 0.00
vt 0.131101 0.000000 0.00
vt 0.416559 0.588792 0.00
vt 0.378161 0.586857 0.00
vt 0.339764 0.588792 0.00
vt 0.339871 0.294396 0.00
vt 0.339764 0.000000 0.00
vt 0.129803 0.990032 0.00
vt 0.064901 0.988592 0.00
vt 0.000000 0.990032 0.00
vt 0.000085 0.495016 0.00
vt 0.000000 0.000000 0.00
vt 0.631702 0.000000 0.00
vt 0.631702 0.018715 0.00
vt 0.631702 0.037430 0.00
vt 0.578375 0.037430 0.00
vt 0.525047 0.037430 0.00
vt 0.417327 0.037430 0.00
vt 0.417327 0.018715 0.00
vt 0.417327 0.000000 0.00
vt 0.470654 0.000000 0.00
vt 0.523981 0.000000 0.00

# 24 Faces
f  13/1/1  1/2/2  10/3/3  9/4/4 
f  17/5/5  3/6/6  12/7/7  14/8/8 
f  21/9/9  5/10/10  16/11/11  18/12/12 
f  24/13/13  7/14/14  20/15/15  22/16/16 
f  11/17/17  2/18/18  23/19/19  25/20/20 
f  21/21/21  7/22/22  24/23/23  26/24/24 
f  10/3/25  2/25/26  11/26/27  9/4/28 
f  11/26/29  4/27/30  12/28/31  9/4/32 
f  12/28/33  3/29/34  13/1/35  9/4/36 
f  12/7/37  4/30/38  15/31/39  14/8/40 
f  15/31/41  6/32/42  16/33/43  14/8/44 
f  16/33/45  5/34/46  17/5/47  14/8/48 
f  16/11/49  6/35/50  19/36/51  18/12/52 
f  19/36/53  8/37/54  20/38/55  18/12/56 
f  20/38/57  7/39/58  21/9/59  18/12/60 
f  20/15/61  8/40/62  23/41/63  22/16/64 
f  23/41/65  2/42/66  10/43/67  22/16/68 
f  10/43/69  1/44/70  24/13/71  22/16/72 
f  23/19/73  8/45/74  19/46/75  25/20/76 
f  19/46/77  6/47/78  15/48/79  25/20/80 
f  15/48/81  4/49/82  11/17/83  25/20/84 
f  24/23/85  1/50/86  13/51/87  26/24/88 
f  13/51/89  3/52/90  17/53/91  26/24/92 
f  17/53/93  5/54/94  21/21/95  26/24/96 
