# Blender v2.80 (sub 75) OBJ File: ''
# www.blender.org
mtllib lowpolyCrate.mtl
o Cube
v 1.000000 1.060392 -1.000000
v 1.000000 -1.149193 -1.000000
v 1.000000 1.060392 1.000000
v 1.000000 -1.149193 1.000000
v -1.000000 1.060392 -1.000000
v -1.000000 -1.149193 -1.000000
v -1.000000 1.060392 1.000000
v -1.000000 -1.149193 1.000000
v -1.000000 -0.800000 -0.800000
v -1.000000 -0.800000 0.800000
v 1.000000 0.800000 -0.800000
v 1.000000 -0.800000 -0.800000
v -1.000000 0.800000 0.800000
v 1.000000 0.800000 0.800000
v 1.000000 -0.800000 0.800000
v -1.000000 0.800000 -0.800000
v 0.800000 -0.800000 -1.000000
v -0.800000 -0.800000 -1.000000
v 0.800000 0.800000 -1.000000
v -0.800000 -0.800000 1.000000
v -0.800000 0.800000 1.000000
v 0.800000 0.800000 1.000000
v 0.800000 -0.800000 1.000000
v -0.800000 0.800000 -1.000000
v -1.000000 -0.800000 -0.800000
v -1.000000 -0.800000 0.800000
v 1.000000 0.800000 -0.800000
v 1.000000 -0.800000 -0.800000
v -1.000000 0.800000 0.800000
v 1.000000 0.800000 0.800000
v 1.000000 -0.800000 0.800000
v -1.000000 0.800000 -0.800000
v 0.800000 -0.800000 -0.900000
v -0.800000 -0.800000 -0.900000
v 0.800000 0.800000 -0.900000
v -0.800000 -0.800000 0.900000
v -0.800000 0.800000 0.900000
v 0.800000 0.800000 0.900000
v 0.800000 -0.800000 0.900000
v -0.800000 0.800000 -0.900000
v -0.900000 -0.800000 -0.800000
v -0.900000 -0.800000 0.800000
v 0.900000 0.800000 -0.800000
v 0.900000 -0.800000 -0.800000
v -0.900000 0.800000 0.800000
v 0.900000 0.800000 0.800000
v 0.900000 -0.800000 0.800000
v -0.900000 0.800000 -0.800000
vt 0.826720 0.007911
vt 0.826720 0.324360
vt 0.562169 0.324360
vt 0.562169 0.007911
vt 0.548942 0.008740
vt 0.548942 0.358351
vt 0.522487 0.303100
vt 0.522487 0.049941
vt 0.271164 0.358351
vt 0.006614 0.358351
vt 0.033069 0.303100
vt 0.244709 0.303100
vt 0.826719 0.691452
vt 0.562169 0.691452
vt 0.562169 0.375003
vt 0.826719 0.375003
vt 0.284392 0.375832
vt 0.548942 0.375832
vt 0.522487 0.431083
vt 0.310847 0.431083
vt 0.271164 0.375832
vt 0.271164 0.725442
vt 0.244709 0.684242
vt 0.244709 0.431083
vt 0.000000 0.000000
vt 0.000000 0.000000
vt 0.000000 0.000000
vt 0.000000 0.000000
vt 0.000000 0.000000
vt 0.000000 0.000000
vt 0.006614 0.008740
vt 0.271164 0.008740
vt 0.244709 0.049941
vt 0.033069 0.049941
vt 0.548942 0.725442
vt 0.284392 0.725442
vt 0.310847 0.684242
vt 0.522487 0.684242
vt 0.444775 0.993671
vt 0.444775 0.740512
vt 0.458003 0.740512
vt 0.458003 0.993671
vt 0.472553 0.993671
vt 0.472553 0.740512
vt 0.485781 0.740512
vt 0.485781 0.993671
vt 0.006614 0.375832
vt 0.033069 0.431083
vt 0.006614 0.725442
vt 0.033069 0.684242
vt 0.284392 0.358351
vt 0.310847 0.303100
vt 0.284392 0.008740
vt 0.310847 0.049941
vt 0.888558 0.272146
vt 0.888558 0.525306
vt 0.875331 0.525306
vt 0.875331 0.272146
vt 0.860780 0.006329
vt 0.860781 0.259488
vt 0.847553 0.259488
vt 0.847553 0.006329
vt 0.000000 0.000000
vt 0.000000 0.000000
vt 0.000000 0.000000
vt 0.000000 0.000000
vt 0.000000 0.000000
vt 0.000000 0.000000
vt 0.000000 0.000000
vt 0.000000 0.000000
vt 0.000000 0.000000
vt 0.000000 0.000000
vt 0.783069 0.958851
vt 0.783069 0.705692
vt 0.994709 0.705692
vt 0.994709 0.958851
vt 0.216931 0.993671
vt 0.005291 0.993671
vt 0.005291 0.740512
vt 0.216931 0.740512
vt 0.471892 0.740512
vt 0.471892 0.993671
vt 0.458664 0.993671
vt 0.458664 0.740512
vt 0.888558 0.006329
vt 0.888558 0.259488
vt 0.875331 0.259488
vt 0.875331 0.006329
vt 0.874669 0.272146
vt 0.874669 0.525306
vt 0.861442 0.525306
vt 0.861442 0.272146
vt 0.860780 0.272146
vt 0.860780 0.525306
vt 0.847553 0.525306
vt 0.847553 0.272146
vt 0.527447 0.740512
vt 0.527447 0.993671
vt 0.514220 0.993671
vt 0.514220 0.740512
vt 0.500331 0.993671
vt 0.500331 0.740512
vt 0.513558 0.740512
vt 0.513558 0.993671
vt 0.439153 0.993671
vt 0.227513 0.993671
vt 0.227513 0.740512
vt 0.439153 0.740512
vt 0.772487 0.958851
vt 0.560847 0.958851
vt 0.560847 0.705692
vt 0.772487 0.705692
vt 0.902447 0.006329
vt 0.902447 0.259488
vt 0.889220 0.259488
vt 0.889220 0.006329
vt 0.874669 0.006329
vt 0.874669 0.259488
vt 0.861442 0.259488
vt 0.861442 0.006329
vt 0.528109 0.993671
vt 0.528109 0.740512
vt 0.541336 0.740512
vt 0.541336 0.993671
vt 0.846892 0.272146
vt 0.846892 0.525306
vt 0.833664 0.525306
vt 0.833664 0.272146
vt 0.846892 0.006329
vt 0.846892 0.259488
vt 0.833664 0.259488
vt 0.833664 0.006329
vt 0.499670 0.740512
vt 0.499669 0.993671
vt 0.486442 0.993671
vt 0.486442 0.740512
vn 0.0000 1.0000 0.0000
vn -0.0000 0.0000 1.0000
vn -1.0000 -0.0000 0.0000
vn 0.0000 -1.0000 0.0000
vn 1.0000 -0.0000 0.0000
vn -0.0000 0.0000 -1.0000
usemtl Material
s off
f 1/1/1 5/2/1 7/3/1 3/4/1
f 7/5/2 8/6/2 20/7/2 21/8/2
f 6/9/3 8/10/3 10/11/3 9/12/3
f 6/13/4 2/14/4 4/15/4 8/16/4
f 4/17/5 2/18/5 12/19/5 15/20/5
f 6/21/6 5/22/6 24/23/6 18/24/6
f 16/25/2 9/26/2 25/27/2 32/28/2
f 13/29/2 16/25/2 32/28/2 29/30/2
f 7/31/3 5/32/3 16/33/3 13/34/3
f 1/35/5 3/36/5 14/37/5 11/38/5
f 5/32/3 6/9/3 9/12/3 16/33/3
f 8/10/3 7/31/3 13/34/3 10/11/3
f 3/36/5 4/17/5 15/20/5 14/37/5
f 2/18/5 1/35/5 11/38/5 12/19/5
f 23/39/3 22/40/3 38/41/3 39/42/3
f 22/43/4 21/44/4 37/45/4 38/46/4
f 2/47/6 6/21/6 18/24/6 17/48/6
f 5/22/6 1/49/6 19/50/6 24/23/6
f 8/6/2 4/51/2 23/52/2 20/7/2
f 3/53/2 7/5/2 21/8/2 22/54/2
f 4/51/2 3/53/2 22/54/2 23/52/2
f 1/49/6 2/47/6 17/48/6 19/50/6
f 31/55/1 28/56/1 44/57/1 47/58/1
f 25/59/1 26/60/1 42/61/1 41/62/1
f 10/63/2 13/29/2 29/30/2 26/64/2
f 9/26/2 10/63/2 26/64/2 25/27/2
f 15/65/2 12/66/2 28/67/2 31/68/2
f 11/69/2 14/70/2 30/71/2 27/72/2
f 14/70/2 15/65/2 31/68/2 30/71/2
f 12/66/2 11/69/2 27/72/2 28/67/2
f 39/73/2 38/74/2 37/75/2 36/76/2
f 34/77/6 40/78/6 35/79/6 33/80/6
f 19/81/3 17/82/3 33/83/3 35/84/3
f 20/85/1 23/86/1 39/87/1 36/88/1
f 18/89/5 24/90/5 40/91/5 34/92/5
f 21/93/5 20/94/5 36/95/5 37/96/5
f 17/97/1 18/98/1 34/99/1 33/100/1
f 24/101/4 19/102/4 35/103/4 40/104/4
f 42/105/3 45/106/3 48/107/3 41/108/3
f 44/109/5 43/110/5 46/111/5 47/112/5
f 27/113/4 30/114/4 46/115/4 43/116/4
f 30/117/6 31/118/6 47/119/6 46/120/6
f 28/121/2 27/122/2 43/123/2 44/124/2
f 29/125/4 32/126/4 48/127/4 45/128/4
f 32/129/2 25/130/2 41/131/2 48/132/2
f 26/133/6 29/134/6 45/135/6 42/136/6
